<?xml version="1.0" encoding="utf-8"?>
<!-- Generator: Adobe Illustrator 27.8.1, SVG Export Plug-In . SVG Version: 6.00 Build 0)  -->
<svg version="1.1" id="Layer_1" xmlns="http://www.w3.org/2000/svg" xmlns:xlink="http://www.w3.org/1999/xlink" x="0px" y="0px"
	 viewBox="0 0 1080 1080" style="enable-background:new 0 0 1080 1080;" xml:space="preserve">
<style type="text/css">
	.st0{fill:#F1F1F1;}
	.st1{fill:#FFFFFF;}
	.st2{fill:#3E77BF;}
	.st3{fill-rule:evenodd;clip-rule:evenodd;}
	.st4{fill-rule:evenodd;clip-rule:evenodd;fill:#FFFFFF;}
	.st5{fill:#EB5D3A;}
</style>
<g>
	<path class="st2" d="M560.91,41.84c-264.73,0-479.39,215.47-479.39,481.34c0,212.63,137.34,393.04,327.92,456.68
		c23.95,4.44,32.69-10.42,32.69-23.2c0-11.41-0.42-41.68-0.65-81.86c-133.38,29.12-161.51-64.52-161.51-64.52
		c-21.77-55.61-53.2-70.38-53.2-70.38c-43.55-29.88,3.28-29.31,3.28-29.31c48.1,3.39,73.41,49.63,73.41,49.63
		c42.81,73.55,112.24,52.29,139.55,39.96c4.31-31.08,16.73-52.32,30.42-64.33C367,723.68,255.09,682.42,255.09,498.01
		c0-52.53,18.67-95.51,49.33-129.19c-4.96-12.17-21.4-61.09,4.67-127.34c0,0,40.27-12.93,131.84,49.33
		c38.24-10.67,79.26-16.01,120.04-16.22c40.69,0.22,81.73,5.54,120.04,16.22c91.49-62.26,131.7-49.33,131.7-49.33
		c26.14,66.25,9.7,115.17,4.75,127.34c30.74,33.68,49.3,76.64,49.3,129.19c0,184.88-112.09,225.55-218.89,237.49
		c17.21,14.86,32.54,44.21,32.54,89.14c0,64.36-0.57,116.23-0.57,132.02c0,12.9,8.64,27.88,32.96,23.14
		c190.33-63.76,327.54-244.05,327.54-456.61C1040.33,257.31,825.67,41.84,560.91,41.84z"/>
	<path d="M560.91,41.84c-264.73,0-479.39,215.47-479.39,481.34c0,212.63,137.34,393.04,327.92,456.68
		c23.95,4.44,32.69-10.42,32.69-23.2c0-11.41-0.42-41.68-0.65-81.86c-133.38,29.12-161.51-64.52-161.51-64.52
		c-21.77-55.61-53.2-70.38-53.2-70.38c-43.55-29.88,3.28-29.31,3.28-29.31c48.1,3.39,73.41,49.63,73.41,49.63
		c42.81,73.55,112.24,52.29,139.55,39.96c4.31-31.08,16.73-52.32,30.42-64.33C367,723.68,255.09,682.42,255.09,498.01
		c0-52.53,18.67-95.51,49.33-129.19c-4.96-12.17-21.4-61.09,4.67-127.34c0,0,40.27-12.93,131.84,49.33
		c38.24-10.67,79.26-16.01,120.04-16.22c40.69,0.22,81.73,5.54,120.04,16.22c91.49-62.26,131.7-49.33,131.7-49.33
		c26.14,66.25,9.7,115.17,4.75,127.34c30.74,33.68,49.3,76.64,49.3,129.19c0,184.88-112.09,225.55-218.89,237.49
		c17.21,14.86,32.54,44.21,32.54,89.14c0,64.36-0.57,116.23-0.57,132.02c0,12.9,8.64,27.88,32.96,23.14
		c190.33-63.76,327.54-244.05,327.54-456.61C1040.33,257.31,825.67,41.84,560.91,41.84z"/>
	<path d="M813.19,242.82c25.38,65.54,9.19,113.91,4.25,125.99c30.74,33.68,49.3,76.64,49.3,129.19
		c0,184.88-112.09,225.55-218.89,237.49c17.21,14.86,32.54,44.21,32.54,89.14c0,64.36-0.57,116.23-0.57,132.02
		c0,12.9,8.64,27.88,32.96,23.14c190.34-63.76,327.56-244.05,327.56-456.61c0-57.14-9.96-111.92-28.16-162.77
		C946.08,290.82,872.51,244.47,813.19,242.82z M454.56,761.26c5.38-10.86,11.95-19.3,18.87-25.41
		c-58.33-6.68-118.24-22.25-160.54-65.23C345.42,724.78,398.4,749.42,454.56,761.26z"/>
	<path d="M106.47,555.63c0-265.87,214.67-481.34,479.39-481.34c146.99,0,278.48,66.48,366.39,171.06
		c-86.83-123.1-229.7-203.5-391.35-203.5c-264.73,0-479.39,215.47-479.39,481.34c0,118.54,42.76,226.99,113.57,310.83
		C139.4,755.4,106.47,659.43,106.47,555.63L106.47,555.63z"/>
	<path d="M705.35,857.1c0-44.91-15.33-74.31-32.54-89.17c106.8-11.91,218.9-52.61,218.9-237.48c0-52.55-18.56-95.5-49.33-129.18
		c4.98-12.17,21.45-61.1-4.75-127.34c0,0-4.98-1.53-15.26-0.94c11.23,49.95-0.8,85.68-4.93,95.82
		c30.74,33.68,49.3,76.64,49.3,129.19c0,184.88-112.09,225.55-218.89,237.49c17.21,14.86,32.54,44.21,32.54,89.14
		c0,64.36-0.57,116.23-0.57,132.02c0,11.35,6.76,24.3,24.98,23.99C704.92,958.89,705.35,912.69,705.35,857.1L705.35,857.1z"/>
	<path d="M308.58,851.48c10.07,20.72,43.9,70.36,133.17,59.91c-0.12-10.92-0.22-23.15-0.28-36.59
		C372.61,889.84,331.95,872.11,308.58,851.48z"/>
	<path d="M325.8,788.45c-4.95-7.42-10.73-14.26-17.21-20.38C314.01,776.12,319.78,782.88,325.8,788.45z"/>
</g>
</svg>
