<?xml version="1.0" encoding="utf-8"?>
<!-- Generator: Adobe Illustrator 27.8.1, SVG Export Plug-In . SVG Version: 6.00 Build 0)  -->
<svg version="1.1" id="Layer_1" xmlns="http://www.w3.org/2000/svg" xmlns:xlink="http://www.w3.org/1999/xlink" x="0px" y="0px"
	 viewBox="0 0 1080 1080" style="enable-background:new 0 0 1080 1080;" xml:space="preserve">
<style type="text/css">
	.st0{fill:#F1F1F1;}
	.st1{fill:#FFFFFF;}
	.st2{fill:#3E77BF;}
	.st3{fill-rule:evenodd;clip-rule:evenodd;}
	.st4{fill-rule:evenodd;clip-rule:evenodd;fill:#FFFFFF;}
	.st5{fill:#EB5D3A;}
</style>
<g>
	<path class="st5" d="M509.1,154.81h-64.81c-8.95,0-16.2,7.25-16.2,16.2c0,0,0,0,0,0v16.2H263.14
		c-8.95-25.31-36.72-38.58-62.03-29.63c-25.31,8.95-38.58,36.72-29.63,62.03c8.95,25.31,36.72,38.58,62.03,29.63
		c13.85-4.89,24.74-15.78,29.63-29.63h63.84c-103.54,64.81-125.73,206.42-125.73,208.37c-1.33,8.85,4.77,17.1,13.62,18.43l0.32,0.05
		h2.27c8.13,0.08,15.06-5.88,16.2-13.94c0-2.27,30.3-199.95,194.44-212.91v16.2c0,8.95,7.25,16.2,16.2,16.2l0,0h64.81
		c8.95,0,16.2-7.25,16.2-16.2c0,0,0,0,0,0v-16.2c149.88,13.45,194.44,210.64,194.44,213.23c1.28,7.92,8.18,13.71,16.2,13.61h3.4
		c8.79-1.65,14.59-10.11,12.95-18.9c-0.05-0.23-0.09-0.46-0.15-0.7c0-1.79-32.4-142.42-132.54-207.23h70.64
		c8.95,25.31,36.72,38.58,62.03,29.63c25.31-8.95,38.58-36.72,29.63-62.03c-8.95-25.31-36.72-38.58-62.03-29.63
		c-13.85,4.89-24.74,15.78-29.63,29.63H525.3v-16.2C525.3,162.07,518.05,154.81,509.1,154.81z"/>
	<circle class="st5" cx="476.7" cy="592.29" r="16.2"/>
	<path class="st5" d="M335.57,603.8c30.86,32.73,51.42,73.81,59.14,118.12h163.97c7.72-44.32,28.28-85.39,59.14-118.12
		c4.67-4.69,6.01-11.74,3.4-17.82L492.9,281.2V546.6c25.31,8.95,38.58,36.72,29.63,62.03c-8.95,25.31-36.72,38.58-62.03,29.63
		c-25.31-8.95-38.58-36.72-29.63-62.03c4.89-13.85,15.78-24.74,29.63-29.63V281.2L332.17,585.98
		C329.56,592.05,330.9,599.11,335.57,603.8L335.57,603.8z M363.27,851.54c0,8.95,7.25,16.2,16.2,16.2c0,0,0,0,0,0h194.44
		c8.95,0,16.2-7.25,16.2-16.2l0,0v-97.22H363.27V851.54z"/>
</g>
</svg>
