<?xml version="1.0" encoding="utf-8"?>
<!-- Generator: Adobe Illustrator 27.8.1, SVG Export Plug-In . SVG Version: 6.00 Build 0)  -->
<svg version="1.1" id="Layer_1" xmlns="http://www.w3.org/2000/svg" xmlns:xlink="http://www.w3.org/1999/xlink" x="0px" y="0px"
	 viewBox="0 0 1080 1080" style="enable-background:new 0 0 1080 1080;" xml:space="preserve">
<style type="text/css">
	.st0{fill:#F1F1F1;}
	.st1{fill:#FFFFFF;}
	.st2{fill:#3E77BF;}
	.st3{fill-rule:evenodd;clip-rule:evenodd;}
	.st4{fill-rule:evenodd;clip-rule:evenodd;fill:#FFFFFF;}
	.st5{fill:#EB5D3A;}
</style>
<g>
	<path d="M970.16,255.69c-8.06-75.5-67.69-135.14-143.2-143.2c-189.36-20.21-379.27-20.21-568.62,0
		c-75.51,8.06-135.14,67.69-143.2,143.2c-20.21,189.35-20.21,379.27,0,568.62c8.06,75.51,67.69,135.14,143.2,143.2
		c189.35,20.21,379.27,20.21,568.63,0c75.51-8.06,135.14-67.69,143.2-143.2C990.37,634.96,990.37,445.04,970.16,255.69z"/>
	<path d="M922.01,287.71c-7.15-67-60.06-119.92-127.07-127.07c-168.03-17.93-336.55-17.93-504.58,0
		c-67,7.15-119.92,60.08-127.07,127.07c-17.93,168.03-17.93,336.55,0,504.57c7.15,67.01,60.08,119.93,127.07,127.07
		c168.03,17.93,336.55,17.93,504.57,0c67.01-7.15,119.93-60.07,127.07-127.07C939.94,624.26,939.94,455.74,922.01,287.71
		L922.01,287.71z"/>
	<path d="M113.25,805.95c0.61,6.12,1.24,12.24,1.89,18.36c8.06,75.5,67.69,135.14,143.2,143.2c189.35,20.21,379.27,20.21,568.62,0
		c75.51-8.06,135.14-67.69,143.2-143.2c0.66-6.12,1.28-12.24,1.9-18.36H113.25z"/>
	<path d="M970.16,824.31c10.84-101.48,15.87-203.49,15.06-305.54L782.86,316.4c-25.28-28.86-62.21-46.88-105.6-48.44
		c-89.24-3.22-178.75-3.05-268,0.01c-74.12,2.55-125.96,52.37-139.25,125.6c-2.34,12.93-3.75,26.03-5.59,39.05V647.3
		c1.02,6.96,2.52,13.88,2.98,20.88c2.97,44.54,21.28,82.69,50.59,108.5L523.91,982.6c101.06,0.71,202.13-4.32,303.05-15.09
		C902.47,959.45,962.1,899.82,970.16,824.31L970.16,824.31z"/>
	<path d="M970.16,824.31c-8.05,75.5-67.7,135.14-143.2,143.2c-100.65,10.75-201.82,15.79-303.04,15.09L318.3,776.98
		c23.84,20.86,54.91,33.57,90.96,34.93c89.23,3.35,178.77,3.26,267.99,0.04c80.7-2.92,139.1-62.65,141.62-143.35
		c2.69-85.74,2.69-171.55,0-257.29c-1.15-37.23-14.22-69.99-35.89-94.78l202.24,202.24C986.03,620.65,981.02,722.57,970.16,824.31
		L970.16,824.31z"/>
	<path d="M647.12,444.13c-25.92-28.23-63.12-45.94-104.47-45.94c-78.31,0-141.81,63.49-141.81,141.81
		c0,41.34,17.71,78.54,45.94,104.47l328.09,328.09c17.38-1.51,34.74-3.2,52.08-5.05c75.51-8.06,135.14-67.69,143.2-143.2
		c1.85-17.34,3.53-34.71,5.05-52.08L647.12,444.13z"/>
	<path d="M983.6,635.37L719.55,371.32c-6.16-8.09-15.87-13.33-26.82-13.33c-18.63,0-33.74,15.1-33.74,33.74
		c0,10.95,5.25,20.66,13.33,26.82L978.88,725.1C980.96,695.22,982.53,665.3,983.6,635.37L983.6,635.37z"/>
	<path d="M264.41,432.62c1.84-13.02,3.25-26.12,5.59-39.05c13.29-73.23,65.13-123.05,139.25-125.6c89.25-3.07,178.77-3.23,268-0.01
		c80.68,2.9,139.1,62.64,141.62,143.34c2.68,85.7,2.68,171.6,0,257.29c-2.52,80.7-60.93,140.43-141.62,143.35
		c-89.24,3.22-178.77,3.3-268-0.05c-80.69-3.03-136.47-62.91-141.87-143.73c-0.47-6.99-1.96-13.92-2.98-20.88V432.62z
		 M542.72,764.12c40.84,0,81.72,1.22,122.5-0.28c63.94-2.37,103.28-40.53,104.77-104.42c1.85-79.63,1.85-159.29,0-238.92
		c-1.49-63.87-40.85-102.93-104.77-104.28c-81.15-1.71-162.33-1.71-243.48,0c-63.43,1.33-102.88,39.6-104.6,102.76
		c-2.19,80.64-2.19,161.33,0,241.97c1.72,63.16,41.17,100.54,104.61,102.89C462.03,765.33,502.4,764.12,542.72,764.12L542.72,764.12
		z"/>
	<g>
		<path class="st1" d="M264.41,432.62c1.84-13.02,3.25-26.12,5.59-39.05c13.29-73.23,65.13-123.05,139.25-125.6
			c89.25-3.07,178.77-3.23,268-0.01c80.68,2.9,139.1,62.64,141.62,143.34c2.68,85.7,2.68,171.6,0,257.29
			c-2.52,80.7-60.93,140.43-141.62,143.35c-89.24,3.22-178.77,3.3-268-0.05c-80.69-3.03-136.47-62.91-141.87-143.73
			c-0.47-6.99-1.96-13.92-2.98-20.88V432.62z M542.72,764.12c40.84,0,81.72,1.22,122.5-0.28c63.94-2.37,103.28-40.53,104.77-104.42
			c1.85-79.63,1.85-159.29,0-238.92c-1.49-63.87-40.85-102.93-104.77-104.28c-81.15-1.71-162.33-1.71-243.48,0
			c-63.43,1.33-102.88,39.6-104.6,102.76c-2.19,80.64-2.19,161.33,0,241.97c1.72,63.16,41.17,100.54,104.61,102.89
			C462.03,765.33,502.4,764.12,542.72,764.12L542.72,764.12z"/>
		<path class="st1" d="M542.65,398.2c-78.31,0-141.81,63.49-141.81,141.8c0,78.32,63.49,141.81,141.81,141.81
			c78.32,0,141.81-63.49,141.81-141.81C684.45,461.69,620.97,398.2,542.65,398.2z M542.65,632.98c-51.36,0-92.98-41.63-92.98-92.98
			s41.63-92.98,92.98-92.98s92.98,41.63,92.98,92.98S594.01,632.98,542.65,632.98z M726.47,391.73c0,18.63-15.1,33.73-33.73,33.73
			c-18.63,0-33.74-15.1-33.74-33.73c0-18.64,15.11-33.74,33.74-33.74C711.37,357.99,726.47,373.1,726.47,391.73z"/>
	</g>
</g>
</svg>
