<?xml version="1.0" encoding="utf-8"?>
<!-- Generator: Adobe Illustrator 27.8.1, SVG Export Plug-In . SVG Version: 6.00 Build 0)  -->
<svg version="1.1" id="Layer_1" xmlns="http://www.w3.org/2000/svg" xmlns:xlink="http://www.w3.org/1999/xlink" x="0px" y="0px"
	 viewBox="0 0 1080 1080" style="enable-background:new 0 0 1080 1080;" xml:space="preserve">
<style type="text/css">
	.st0{fill:#F1F1F1;}
	.st1{fill:#FFFFFF;}
	.st2{fill:#3E77BF;}
	.st3{fill-rule:evenodd;clip-rule:evenodd;}
	.st4{fill-rule:evenodd;clip-rule:evenodd;fill:#FFFFFF;}
</style>
<g>
	<g>
		<path class="st3" d="M743.83,996.45H287.38c-126.05,0-228.23-102.18-228.23-228.23V311.77c0-126.05,102.18-228.23,228.23-228.23
			h456.45c126.05,0,228.23,102.18,228.23,228.23v456.45C972.06,894.27,869.88,996.45,743.83,996.45"/>
		<path class="st3" d="M487.07,340.3h256.76c70.9,0.09,128.45-57.32,128.54-128.22c0.08-65.94-49.81-121.22-115.42-127.88
			c-4.36-0.24-8.69-0.66-13.12-0.66H287.38c-126.05,0-228.23,102.18-228.23,228.23v456.45C59.15,531.89,250.74,340.3,487.07,340.3"
			/>
		<path class="st3" d="M743.83,540C617.78,540,515.6,642.18,515.6,768.23s102.18,228.23,228.23,228.23s228.23-102.18,228.23-228.23
			V311.77C972.06,437.82,869.88,540,743.83,540"/>
	</g>
	<path class="st1" d="M258.85,440.15h57.06c15.76,0,28.53,12.77,28.53,28.53v328.08c0,15.76-12.77,28.53-28.53,28.53h-57.06
		c-15.76,0-28.53-12.77-28.53-28.53V468.68C230.32,452.92,243.09,440.15,258.85,440.15z"/>
	<circle class="st1" cx="287.38" cy="311.77" r="71.32"/>
	<path class="st4" d="M544.13,492.07c23.41-40.93,66.96-66.19,114.11-66.19c72.56,0,142.64,42.79,142.64,156.91v213.96
		c0,15.76-12.77,28.53-28.53,28.53H715.3c-15.76,0-28.53-12.77-28.53-28.53v-199.7c0-39.39-31.93-71.32-71.32-71.32
		s-71.32,31.93-71.32,71.32v199.7c0,15.76-12.77,28.53-28.53,28.53h-57.06c-15.76,0-28.53-12.77-28.53-28.53V468.68
		c0-15.76,12.77-28.53,28.53-28.53h57.06c15.76,0,28.53,12.77,28.53,28.53V492.07z"/>
</g>
</svg>
